<svg width="60" height="50" viewBox="0 0 60 50" fill="none" xmlns="http://www.w3.org/2000/svg">
<path d="M0 10C0 4.47715 4.47715 0 10 0H50C55.5228 0 60 4.47715 60 10V40C60 45.5228 55.5228 50 50 50H10C4.47715 50 0 45.5228 0 40V10Z" fill="#FFFEFE"/>
<path d="M18.1666 9.51563C18.3783 7.24998 20.2395 5.54878 22.5065 5.54879V5.54879C22.8345 5.54879 23.1626 5.58497 23.4849 5.65669L23.6103 5.68458C26.4728 6.32152 28.4505 9.03044 28.1784 11.9418L25.596 39.5799C25.338 42.3409 22.8201 44.2465 20.0872 43.749L15.6214 42.9361C15.3131 42.88 15.0291 43.0949 15 43.4063V43.4063L18.1666 9.51563Z" fill="#5648F8"/>
<path d="M20 9.58726C20 7.35688 21.8081 5.5488 24.0385 5.5488H40.9615C43.1919 5.5488 45 7.35688 45 9.58726V9.58726C45 11.8176 43.1919 13.6257 40.9615 13.6257H24.0385C21.8081 13.6257 20 11.8176 20 9.58726V9.58726Z" fill="#5648F8"/>
<path d="M18 21.1257C18 18.8953 19.8081 17.0872 22.0385 17.0872H36.9615C39.1919 17.0872 41 18.8953 41 21.1257V21.1257C41 23.3561 39.1919 25.1642 36.9615 25.1642H22.0385C19.8081 25.1642 18 23.3561 18 21.1257V21.1257Z" fill="#5648F8"/>
</svg>
